
<svg height='16' width='16' fill="#333" xmlns="http://www.w3.org/2000/svg" xmlns:xlink="http://www.w3.org/1999/xlink" version="1.1" viewBox="0 0 100 100" enable-background="new 0 0 100 100" xml:space="preserve">
  <path d="M50,0C22.385,0,0,22.385,0,50c0,27.615,22.385,50,50,50c27.614,0,50-22.385,50-50C100,22.385,77.614,0,50,0z M59.71,36.458   c0.556-1.264,2.035-1.833,3.295-1.281l12.859,5.66c1.264,0.557,1.838,2.033,1.28,3.296c-0.411,0.936-1.328,1.494-2.289,1.494   c-0.337,0-0.678-0.068-1.004-0.212l-12.86-5.661C59.727,39.197,59.152,37.722,59.71,36.458z M20.519,21.326   c1.216-2.859,9.472-6.784,9.472-6.784s2.096,8.332,0.878,11.19c-1.217,2.859-4.52,4.19-7.379,2.973   C20.632,27.488,19.302,24.183,20.519,21.326z M25.748,45.626c-0.961,0-1.876-0.558-2.289-1.494   c-0.556-1.263,0.018-2.739,1.282-3.296l12.859-5.66c1.264-0.556,2.739,0.017,3.295,1.281c0.557,1.264-0.017,2.739-1.281,3.295   l-12.859,5.661C26.426,45.558,26.084,45.626,25.748,45.626z M79.782,64.911l-8.619,8.57c0.395,0.227,0.735,0.557,0.965,0.987   c0.647,1.216,0.19,2.725-1.023,3.375c-0.345,0.186-6.441,3.385-14.279,3.385c-2.83,0-5.889-0.417-8.985-1.547   c-9.903-3.608-16.062,0.097-16.122,0.136c-1.174,0.728-2.714,0.363-3.441-0.809c-0.728-1.173-0.367-2.715,0.807-3.442   c0.334-0.205,8.309-5.017,20.466-0.582c3.913,1.425,7.822,1.418,11.09,0.922c0.104-0.155,0.225-0.304,0.363-0.441l14.812-14.727   c-0.444-1.882,0.053-3.939,1.525-5.404c2.252-2.241,5.896-2.23,8.138,0.022s2.231,5.897-0.023,8.14   C83.915,65.028,81.73,65.481,79.782,64.911z" />
</svg>